<?xml version="1.0" encoding="utf-8"?>
<!-- Generator: Adobe Illustrator 23.0.2, SVG Export Plug-In . SVG Version: 6.00 Build 0)  -->
<svg version="1.1" id="Layer_1" xmlns="http://www.w3.org/2000/svg" xmlns:xlink="http://www.w3.org/1999/xlink" x="0px" y="0px"
	 viewBox="0 0 1021 651" style="enable-background:new 0 0 1021 651;" xml:space="preserve">
<style type="text/css">
	.st0{fill:#3FA9F5;}
	.st1{fill:#1E90FF;}
	.st2{fill:none;stroke:#1E90FF;stroke-width:30;stroke-miterlimit:10;}
</style>
<g id="Layer_2">
	<path class="st0" d="M491.2,78.9c-21.3-1.2-42.5-2.3-63.8-3.5"/>
	<path class="st1" d="M475.3,34.1c87.2,2.4,174.3,4.7,261.5,7.1c153.7,20.5,266.9,157.2,258.5,310.9c-8.3,152.1-133,275-286.2,280.9
		c145.3-19.6,252.2-144,250.3-283.3C957.6,223,866,109.7,736.8,79.5c-88.7-3.7-177.4-7.5-266.2-11.2"/>
	<path class="st0" d="M427.4,75.4c-1.5-0.1-3-0.2-4.5-0.2"/>
</g>
<rect x="369.9" y="437.2" class="st1" width="240.9" height="180.6"/>
<circle class="st1" cx="490.3" cy="154.5" r="120.4"/>
<circle class="st1" cx="490.3" cy="437.2" r="120.4"/>
<path class="st1" d="M360.5,617.7C189.3,626,47,500.7,31.9,352.7C14.9,186,162.1,19.4,357,24.1C172.6,29.7,40.8,191.7,61.9,348
	c18,133,144.3,244,298.6,243.8c10.6,1.2,21.2,2.4,31.8,3.5c0,7.7,0,15.4,0,23.1"/>
<circle class="st2" cx="220" cy="295.9" r="88.6"/>
<circle class="st2" cx="773.6" cy="295.9" r="88.6"/>
<path class="st0" d="M218.1,320.2l-10.8,10.8L170.2,294c-3-3-3-7.8,0-10.8l0,0c3-3,7.8-3,10.8,0L218.1,320.2z"/>
<path class="st0" d="M207.5,331l-10.8-10.8l57-57c3-3,7.8-3,10.8,0l0,0c3,3,3,7.8,0,10.8L207.5,331z"/>
<path class="st0" d="M774.6,320.2l-10.8,10.8L726.7,294c-3-3-3-7.8,0-10.8l0,0c3-3,7.8-3,10.8,0L774.6,320.2z"/>
<path class="st0" d="M764,331l-10.8-10.8l57-57c3-3,7.8-3,10.8,0l0,0c3,3,3,7.8,0,10.8L764,331z"/>
</svg>
