<?xml version="1.0" encoding="utf-8"?>
<!-- Generator: Adobe Illustrator 23.0.2, SVG Export Plug-In . SVG Version: 6.00 Build 0)  -->
<svg version="1.1" id="Layer_1" xmlns="http://www.w3.org/2000/svg" xmlns:xlink="http://www.w3.org/1999/xlink" x="0px" y="0px"
	 viewBox="0 0 408 274" style="enable-background:new 0 0 408 274;" xml:space="preserve">
<style type="text/css">
	.st0{fill:#1FDE82;}
	.st1{fill:none;}
	.st2{fill:none;stroke:#1FDE82;stroke-width:10;stroke-miterlimit:10;}
</style>
<image style="display:none;overflow:visible;enable-background:new    ;" width="4608" height="2592" xlink:href="C:\Users\User\Desktop\1.jpg"  transform="matrix(0.7489 0 0 0.7489 -1973.9221 -1291.6072)">
</image>
<circle class="st0" cx="203.4" cy="75.6" r="49.2"/>
<circle class="st0" cx="203.4" cy="188" r="49.2"/>
<rect x="154" y="188" class="st0" width="98.9" height="72.1"/>
<path class="st0" d="M-391-760.4"/>
<path class="st1" d="M-391-760.4"/>
<path class="st0" d="M199.2,26.4c17.8,0,35.6,0,53.4,0c79.8-2.9,140.4,62.2,136.3,128.1c-3.5,53.6-49.9,102.6-112.3,111
	c53-11.9,89.4-59.6,87.5-111c-2.4-56.5-51-103.9-111.2-104.4c-17.8,0-35.6,0-53.4,0C199.2,42.2,199.2,34.3,199.2,26.4z"/>
<path class="st0" d="M203,258.7c-16.3,0-32.5,0-48.8,0C81.9,265.3,20.4,208.8,19,142.2C17.3,73.9,79.9,13.9,154.2,20.5
	C84.7,22.9,35.1,83.8,42.8,142.9c6.6,50.1,53.4,92.1,111.2,93c15.6-0.4,31.2-0.7,46.8-0.9C201.7,242.9,202.3,250.8,203,258.7z"/>
<circle class="st2" cx="100.6" cy="131.2" r="32.3"/>
<ellipse class="st2" cx="302.3" cy="131.2" rx="32.3" ry="32.3"/>
<path class="st0" d="M303.8,135.2l-8.4,7.5l-9.2-10.1c-2.2-2.4-2.2-5.9,0.2-8.1l0,0c2.2-2.2,5.9-1.8,8.1,0.7L303.8,135.2z"/>
<path class="st0" d="M294.6,142l-3.7-4.6l19.6-16.5c2.4-2.2,6.2-1.8,8.4,0.7l0,0c2.2,2.4,1.8,6.2-0.7,8.4l-14.9,12.5
	C300.5,144.9,296.6,144.6,294.6,142z"/>
<path class="st0" d="M101.9,135.2l-8.4,7.5l-9.2-10.1c-2.2-2.4-2.2-5.9,0.2-8.1l0,0c2.2-2.2,5.9-1.8,8.1,0.7L101.9,135.2z"/>
<path class="st0" d="M92.7,142l-3.7-4.6l19.6-16.5c2.4-2.2,6.2-1.8,8.4,0.7l0,0c2.2,2.4,1.8,6.2-0.7,8.4L101,142.7
	C98.6,144.9,94.6,144.6,92.7,142z"/>
</svg>
